<svg xmlns="http://www.w3.org/2000/svg" viewBox="0 0 150 52.73"><defs><style>.cls-1{opacity:0.5;}.cls-2{fill:#173440;}.cls-3{fill:#295d73;}.cls-4{opacity:0.2;}.cls-5{fill:#5ac8f7;}.cls-6{fill:#3c86a6;}.cls-7{opacity:0.2;}</style></defs><title>开关-关</title><g id="图层_2" data-name="图层 2"><g id="组件"><g id="开关-关"><g class="cls-1"><rect class="cls-2" x="27.81" y="26.11" width="59.71" height="0.51" transform="translate(6.02 63.16) rotate(-60.03)"/><rect class="cls-2" x="24.54" y="26.11" width="59.71" height="0.51" transform="translate(4.38 60.32) rotate(-60.03)"/><rect class="cls-2" x="21.26" y="26.11" width="59.71" height="0.51" transform="translate(2.74 57.48) rotate(-60.03)"/><rect class="cls-2" x="17.98" y="26.11" width="59.71" height="0.51" transform="translate(1.1 54.64) rotate(-60.03)"/><rect class="cls-2" x="14.7" y="26.11" width="59.71" height="0.51" transform="translate(-0.54 51.79) rotate(-60.03)"/><rect class="cls-2" x="11.42" y="26.11" width="59.71" height="0.51" transform="translate(-2.18 48.95) rotate(-60.03)"/><rect class="cls-2" x="8.14" y="26.11" width="59.71" height="0.51" transform="translate(-3.82 46.11) rotate(-60.03)"/><rect class="cls-2" x="4.86" y="26.11" width="59.71" height="0.51" transform="translate(-5.47 43.27) rotate(-60.03)"/><rect class="cls-2" x="1.58" y="26.11" width="59.71" height="0.51" transform="translate(-7.11 40.43) rotate(-60.03)"/><rect class="cls-2" x="-1.7" y="26.11" width="59.71" height="0.51" transform="translate(-8.75 37.59) rotate(-60.03)"/><rect class="cls-2" x="-4.98" y="26.11" width="59.71" height="0.51" transform="translate(-10.39 34.75) rotate(-60.03)"/><rect class="cls-2" x="-7.17" y="25.49" width="58.26" height="0.51" transform="translate(-11.31 31.91) rotate(-60.03)"/><rect class="cls-2" x="-8.65" y="24.45" width="55.87" height="0.51" transform="translate(-11.75 29.07) rotate(-60.03)"/><rect class="cls-2" x="-10.13" y="23.41" width="53.46" height="0.51" transform="translate(-12.19 26.22) rotate(-60.03)"/><rect class="cls-2" x="-11.61" y="22.37" width="51.07" height="0.51" transform="translate(-12.63 23.38) rotate(-60.03)"/><rect class="cls-2" x="-10.95" y="20.09" width="45.81" height="0.51" transform="translate(-11.64 20.54) rotate(-60.03)"/><rect class="cls-2" x="-9.31" y="17.25" width="39.25" height="0.51" transform="translate(-10 17.7) rotate(-60.03)"/><rect class="cls-2" x="-7.67" y="14.41" width="32.68" height="0.51" transform="translate(-8.36 14.86) rotate(-60.03)"/><rect class="cls-2" x="-6.03" y="11.57" width="26.14" height="0.51" transform="translate(-6.72 12.02) rotate(-60.03)"/><rect class="cls-2" x="-4.5" y="8.93" width="20.03" height="0.51" transform="translate(-5.2 9.37) rotate(-60.03)"/><path class="cls-3" d="M46.89,52.73H8.44L0,44.29V8.44L8.44,0h68.9Zm-38-1H46.3L75.57,1H8.86L1,8.86v35Z"/></g><path class="cls-3" d="M42.25,26.85H36.78v9.92h-2V26.85H28.26A19.29,19.29,0,0,1,27.85,30a10.11,10.11,0,0,1-.92,2.54,11.89,11.89,0,0,1-1.6,2.27,30.69,30.69,0,0,1-2.42,2.37l-1.39-1.37a24.73,24.73,0,0,0,2.23-2.13,10.13,10.13,0,0,0,1.44-2A8.6,8.6,0,0,0,26,29.54a15.5,15.5,0,0,0,.34-2.69H20.64V25.07H26.4V18.2H21.91V16.42H41V18.2H36.78v6.87h5.47Zm-7.42-1.78V18.2h-6.5v6.87Z"/><g class="cls-4"><path class="cls-5" d="M83.05.51h58.3l8.14,8.14V44.08l-8.14,8.14H53.19Z"/></g><path class="cls-6" d="M141.56,52.73H52.31L82.75,0h58.81L150,8.44V44.29Zm-87.49-1h87.07L149,43.87v-35L141.14,1H83.34Z"/><path class="cls-5" d="M109.47,27.44A9.88,9.88,0,0,0,112.91,32a18.79,18.79,0,0,0,6.33,2.95l-1,1.88a22.45,22.45,0,0,1-3.05-1.15,17.55,17.55,0,0,1-2.8-1.61A14.14,14.14,0,0,1,110.07,32a10.36,10.36,0,0,1-1.7-2.54,11.91,11.91,0,0,1-3.51,4,28,28,0,0,1-6.09,3.37L97.67,35a32.33,32.33,0,0,0,4-1.83,17.42,17.42,0,0,0,2.8-1.88,9,9,0,0,0,1.75-1.92,6.87,6.87,0,0,0,.93-2H98.45V25.61h9V21.18H99.75V19.43h4.91c-.17-.31-.35-.65-.56-1s-.44-.73-.68-1.08-.46-.7-.68-1-.42-.57-.6-.78l1.47-.93c.19.23.42.52.68.87s.52.72.78,1.1l.76,1.12c.24.37.44.69.59,1l-1,.76h4.54a26.6,26.6,0,0,0,1.74-2.4,24.43,24.43,0,0,0,1.41-2.44l1.71.71c-.35.68-.75,1.38-1.19,2.09s-.91,1.38-1.4,2H117v1.75h-7.6l0,4.23v.2h9v1.83Z"/><g class="cls-7"><path d="M56.76,31.14c-.17.37-.39.79-.65,1.26s-.54,1-.83,1.44-.6,1-.91,1.42-.58.88-.84,1.25l-2.35-1.12c.28-.36.57-.76.87-1.21s.61-.9.9-1.36.55-.92.79-1.36.43-.84.58-1.18Zm4-1.84v4.12a3.91,3.91,0,0,1-.14,1.17,1.73,1.73,0,0,1-.44.73,2.38,2.38,0,0,1-.81.45c-.33.11-.73.23-1.21.35L57,36.4l-.83-2.59.89-.22a2.29,2.29,0,0,0,.73-.27.61.61,0,0,0,.2-.55v-3.1l-5.6.73L53,22.66l2-.28,2.1-.34c.71-.12,1.43-.25,2.14-.39l2-.42c.66-.14,1.28-.27,1.87-.41l1.56-.39.55,2.63-2.07.47L60.73,24l-2.59.48L55.56,25l-.18,2.54L58,27.23V25l2.78-.3v2.15l4.93-.6V28.7Zm2.72-.23c.17.2.39.46.65.79L65,30.93c.29.4.58.8.86,1.21s.54.8.77,1.18l-2.36,1.82c-.19-.36-.41-.74-.65-1.16s-.52-.83-.79-1.23L62,31.6a7.89,7.89,0,0,0-.72-.9Z"/><path d="M82.29,24.23v2.21L67.65,28.39V26.23l3.27-.43.24-1-2.39.32V23.23l2.85-.38.21-.87-3.4.45v-2.2l13.08-1.72v2.2l-6.85.9-.21.87,6-.79-.15,2.85ZM69.1,28.92l11.74-1.55V33L69.1,34.55ZM71.68,32l6.45-.85V29.88l-6.45.84Zm2.09-6.64,3.87-.51.06-.95L74,24.4Z"/><path d="M89,26.9c-.18.37-.39.79-.65,1.26s-.54.94-.84,1.43-.6,1-.9,1.43-.59.88-.85,1.25L83.4,31.15c.27-.36.56-.77.87-1.21s.6-.9.89-1.36.55-.92.79-1.36.44-.84.59-1.19Zm4-1.84v4.11a4,4,0,0,1-.14,1.18,1.66,1.66,0,0,1-.45.72,2.4,2.4,0,0,1-.81.46c-.33.11-.73.23-1.21.35l-1.17.28-.83-2.59.89-.22a2.89,2.89,0,0,0,.73-.27.61.61,0,0,0,.2-.55V25.42l-5.6.74.59-7.74,2-.28,2.11-.34,2.14-.39L93.49,17c.66-.14,1.29-.27,1.87-.41l1.48-.36.56,2.62-2.07.48c-.76.17-1.57.34-2.41.5l-2.6.49-2.58.46-.17,2.54L90.15,23V20.74l2.78-.3v2.15l4.93-.65v2.47Zm2.72-.23c.17.2.39.46.65.79s.55.68.84,1.07.58.8.86,1.21.54.8.77,1.17L96.46,30.9c-.19-.36-.4-.74-.65-1.16s-.51-.83-.8-1.23l-.81-1.15c-.27-.36-.51-.66-.73-.9Z"/></g></g></g></g></svg>