<svg xmlns="http://www.w3.org/2000/svg" viewBox="0 0 150 20.28"><defs><style>.cls-1{fill:#5ac8f7;fill-opacity:0.2;}.cls-2{fill:#f7f3de;}.cls-3{opacity:0.2;}</style></defs><title>文本框</title><g id="图层_2" data-name="图层 2"><g id="组件"><g id="文本框"><rect class="cls-1" x="4.58" y="1.68" width="145.42" height="16.92"/><rect class="cls-2" y="1.68" width="3.38" height="16.92"/><g class="cls-3"><path d="M56.76,14.91c-.17.37-.39.79-.65,1.26s-.54,1-.83,1.44-.6,1-.91,1.42-.58.88-.84,1.25l-2.35-1.12c.28-.36.57-.76.87-1.21s.61-.9.9-1.36.55-.92.79-1.36.43-.84.58-1.18Zm4-1.84v4.12a3.87,3.87,0,0,1-.14,1.17,1.62,1.62,0,0,1-.44.73,2.38,2.38,0,0,1-.81.45c-.33.11-.73.23-1.21.35L57,20.17l-.83-2.59.89-.22a2.29,2.29,0,0,0,.73-.27.61.61,0,0,0,.2-.55v-3.1l-5.6.73L53,6.43l2-.28,2.1-.34c.71-.12,1.43-.25,2.14-.39l2-.42c.66-.14,1.28-.27,1.87-.41l1.56-.39.55,2.63-2.07.47-2.42.51-2.59.48-2.58.46-.18,2.54L58,11V8.75l2.78-.3V10.6l4.93-.6v2.47Zm2.72-.23c.17.2.39.46.65.79L65,14.7c.29.4.58.8.86,1.21s.54.8.77,1.18l-2.36,1.82c-.19-.36-.41-.74-.65-1.16s-.52-.83-.79-1.23L62,15.37a10.13,10.13,0,0,0-.72-.9Z"/><path d="M82.29,8v2.21L67.65,12.16V10l3.27-.43.24-1-2.39.32V7l2.85-.38.21-.87-3.4.45V4L81.51,2.28v2.2l-6.85.9-.21.87,6-.79L80.3,8.31ZM69.1,12.69l11.74-1.55v5.63L69.1,18.32Zm2.58,3.09,6.45-.85V13.65l-6.45.84Zm2.09-6.64,3.87-.51.06-1L74,8.17Z"/><path d="M89,10.67c-.18.37-.39.79-.65,1.26s-.54.94-.84,1.43-.6,1-.9,1.43-.59.88-.85,1.25L83.4,14.92c.27-.36.56-.77.87-1.21s.6-.9.89-1.36.55-.92.79-1.36.44-.84.59-1.19Zm4-1.84v4.11a3.9,3.9,0,0,1-.14,1.18,1.66,1.66,0,0,1-.45.72,2.4,2.4,0,0,1-.81.46c-.33.11-.73.23-1.21.35l-1.17.28-.83-2.59.89-.22a2.55,2.55,0,0,0,.73-.27.61.61,0,0,0,.2-.55V9.19l-5.6.74.59-7.74,2-.28,2.11-.34,2.14-.39L93.49.77C94.15.63,94.78.5,95.36.36L96.84,0l.56,2.62-2.07.48c-.76.17-1.57.34-2.41.5l-2.6.49-2.58.46-.17,2.54,2.58-.34V4.51l2.78-.3V6.36l4.93-.65V8.18ZM95.7,8.6c.17.2.39.46.65.79s.55.68.84,1.07.58.8.86,1.21.54.8.77,1.17l-2.36,1.83c-.19-.36-.4-.74-.65-1.16s-.51-.83-.8-1.23l-.81-1.15c-.27-.36-.51-.66-.73-.9Z"/></g></g></g></g></svg>