<svg xmlns="http://www.w3.org/2000/svg" xmlns:xlink="http://www.w3.org/1999/xlink" viewBox="0 0 150.52 150"><defs><style>.cls-1{fill:none;}.cls-2{clip-path:url(#clip-path);}.cls-3{fill:url(#未命名的渐变_34);}.cls-4{fill:#3c86a6;}.cls-5{fill:#5ac8f7;}.cls-6{opacity:0.2;}</style><clipPath id="clip-path" transform="translate(0.26)"><rect class="cls-1" x="0.74" y="2.14" width="148.52" height="145.63"/></clipPath><linearGradient id="未命名的渐变_34" x1="0.5" y1="74.96" x2="150.02" y2="74.96" gradientUnits="userSpaceOnUse"><stop offset="0.45" stop-color="#5ac8f7" stop-opacity="0.04"/><stop offset="1" stop-color="#5ac8f7" stop-opacity="0.2"/></linearGradient></defs><title>看板7</title><g id="图层_2" data-name="图层 2"><g id="组件"><g id="看板7"><g class="cls-2"><rect class="cls-3" x="0.5" y="1.64" width="149.52" height="146.63"/><path class="cls-4" d="M149.25,2.14V147.77H.74V2.14H149.25m1-1H-.26V148.77H150.25V1.14Z" transform="translate(0.26)"/><path class="cls-5" d="M149.25,147.77v0Z" transform="translate(0.26)"/></g><path class="cls-4" d="M148.54,2.85V147.07H1.45V2.85H148.54M150,1.44H0v147H150V1.44Z" transform="translate(0.26)"/><polygon class="cls-5" points="32.56 2.85 0.26 2.85 0.26 0 30.89 0 32.56 2.85"/><polygon class="cls-5" points="1.72 0 1.72 32.52 0.26 31.69 0.26 0 1.72 0"/><polygon class="cls-5" points="1.72 23.21 1.72 40.75 0.99 40.34 0.99 22.8 1.72 23.21"/><polygon class="cls-5" points="117.96 2.85 150.26 2.85 150.26 0 119.64 0 117.96 2.85"/><polygon class="cls-5" points="148.81 0 148.81 32.52 150.26 31.69 150.26 0 148.81 0"/><polygon class="cls-5" points="148.81 23.21 148.81 40.75 149.54 40.34 149.54 22.8 148.81 23.21"/><polygon class="cls-5" points="32.56 147.15 0.26 147.15 0.26 150 30.89 150 32.56 147.15"/><polygon class="cls-5" points="1.72 150 1.72 117.48 0.26 118.31 0.26 150 1.72 150"/><polygon class="cls-5" points="1.72 126.78 1.72 109.25 0.99 109.66 0.99 127.2 1.72 126.78"/><polygon class="cls-5" points="117.96 147.15 150.26 147.15 150.26 150 119.64 150 117.96 147.15"/><polygon class="cls-5" points="148.81 150 148.81 117.48 150.26 118.31 150.26 150 148.81 150"/><polygon class="cls-5" points="148.81 126.78 148.81 109.25 149.54 109.66 149.54 127.2 148.81 126.78"/><g class="cls-6"><path d="M56.76,79.77c-.17.37-.39.79-.65,1.26s-.54,1-.83,1.44-.6,1-.91,1.42-.58.88-.84,1.25L51.18,84c.28-.36.57-.76.87-1.21s.61-.9.9-1.36.55-.92.79-1.36.43-.84.58-1.18Zm4-1.84v4.12a3.87,3.87,0,0,1-.14,1.17,1.62,1.62,0,0,1-.44.73,2.38,2.38,0,0,1-.81.45c-.33.11-.73.23-1.21.35L57,85l-.83-2.59.89-.22a2.29,2.29,0,0,0,.73-.27.61.61,0,0,0,.2-.55V78.3l-5.6.73L53,71.29,55,71l2.1-.34c.71-.12,1.43-.25,2.14-.39l2-.42c.66-.14,1.28-.27,1.87-.41l1.56-.39.55,2.63-2.07.47-2.42.51-2.59.48-2.58.46-.18,2.54L58,75.86V73.61l2.78-.3v2.15l4.93-.6v2.47Zm2.72-.23c.17.2.39.46.65.79L65,79.56c.29.4.58.8.86,1.21s.54.8.77,1.18l-2.36,1.82c-.19-.36-.41-.74-.65-1.16s-.52-.83-.79-1.23L62,80.23a10.13,10.13,0,0,0-.72-.9Z" transform="translate(0.26)"/><path d="M82.29,72.86v2.21L67.65,77V74.86l3.27-.43.24-1-2.39.32V71.86l2.85-.38.21-.87-3.4.45v-2.2l13.08-1.72v2.2l-6.85.9-.21.87,6-.79-.15,2.85ZM69.1,77.55,80.84,76v5.63L69.1,83.18Zm2.58,3.09,6.45-.85V78.51l-6.45.84ZM73.77,74l3.87-.51.06-.95L74,73Z" transform="translate(0.26)"/><path d="M89,75.53c-.18.37-.39.79-.65,1.26s-.54.94-.84,1.43-.6,1-.9,1.43-.59.88-.85,1.25L83.4,79.78c.27-.36.56-.77.87-1.21s.6-.9.89-1.36.55-.92.79-1.36.44-.84.59-1.19Zm4-1.84V77.8A3.9,3.9,0,0,1,92.84,79a1.66,1.66,0,0,1-.45.72,2.4,2.4,0,0,1-.81.46c-.33.11-.73.23-1.21.35l-1.17.28-.83-2.59.89-.22a2.55,2.55,0,0,0,.73-.27.61.61,0,0,0,.2-.55V74.05l-5.6.74.59-7.74,2-.28,2.11-.34L91.43,66l2.06-.41c.66-.14,1.29-.27,1.87-.41l1.48-.36.56,2.62L95.33,68c-.76.17-1.57.34-2.41.5l-2.6.49-2.58.46L87.57,72l2.58-.34V69.37l2.78-.3v2.15l4.93-.65V73Zm2.72-.23c.17.2.39.46.65.79s.55.68.84,1.07.58.8.86,1.21.54.8.77,1.17l-2.36,1.83c-.19-.36-.4-.74-.65-1.16s-.51-.83-.8-1.23L94.2,76c-.27-.36-.51-.66-.73-.9Z" transform="translate(0.26)"/></g></g></g></g></svg>