<svg xmlns="http://www.w3.org/2000/svg" viewBox="0 0 150 73.38"><defs><style>.cls-1{fill:#3c86a6;}.cls-2{opacity:0.4;}.cls-3{fill:#5ac8f7;}.cls-4{opacity:0.2;}</style></defs><title>看板2</title><g id="图层_2" data-name="图层 2"><g id="组件"><g id="看板2"><path class="cls-1" d="M148.78,73.38H1.22l0,0-.75-.75L0,72.16v-8l2.37-2.39V11.64L0,9.27v-8l.08-.08C.5.71.76.46,1.2,0l0,0H148.78l.46.46.68.68.08.08v8l-2.37,2.37V61.72L150,64.11v8ZM1.28,73.23H148.72l1.13-1.13V64.17l-2.37-2.39V11.57l2.37-2.36V1.28l0,0-.68-.68-.42-.41H1.28L.18,1.24l0,0V9.21l2.37,2.36V61.78L.15,64.17V72.1l.4.41Z"/><g class="cls-2"><path class="cls-3" d="M24.86.07l-.65,1.12H.13L1.25.07Z"/></g><g class="cls-2"><polygon class="cls-3" points="118.22 1.19 30.21 1.19 30.86 0.07 118.86 0.07 118.22 1.19"/></g><polygon class="cls-3" points="26.21 1.19 24.86 1.19 25 0.95 26.35 0.95 26.21 1.19"/><polygon class="cls-3" points="26.91 1.19 26.44 1.19 26.58 0.95 27.05 0.95 26.91 1.19"/><g class="cls-2"><path class="cls-3" d="M149.87,1.19H122.38L123,.07h25.72Z"/></g><polygon class="cls-3" points="121.06 1.19 119.71 1.19 119.85 0.95 121.2 0.95 121.06 1.19"/><polygon class="cls-3" points="121.76 1.19 121.3 1.19 121.44 0.95 121.9 0.95 121.76 1.19"/><g class="cls-4"><path d="M56.76,41.46c-.17.37-.39.79-.65,1.26s-.54,1-.83,1.44-.6,1-.91,1.42-.58.88-.84,1.25l-2.35-1.12c.28-.36.57-.76.87-1.21s.61-.9.9-1.36.55-.92.79-1.36.43-.84.58-1.18Zm4-1.84v4.12a3.87,3.87,0,0,1-.14,1.17,1.62,1.62,0,0,1-.44.73,2.38,2.38,0,0,1-.81.45c-.33.11-.73.23-1.21.35L57,46.72l-.83-2.59.89-.22a2.29,2.29,0,0,0,.73-.27.61.61,0,0,0,.2-.55V40l-5.6.73L53,33l2-.28,2.1-.34c.71-.12,1.43-.25,2.14-.39l2-.42c.66-.14,1.28-.27,1.87-.41l1.56-.39.55,2.63-2.07.47-2.42.51-2.59.48-2.58.46-.18,2.54L58,37.55V35.3l2.78-.3v2.15l4.93-.6V39Zm2.72-.23c.17.2.39.46.65.79L65,41.25c.29.4.58.8.86,1.21s.54.8.77,1.18l-2.36,1.82c-.19-.36-.41-.74-.65-1.16s-.52-.83-.79-1.23L62,41.92a10.13,10.13,0,0,0-.72-.9Z"/><path d="M82.29,34.55v2.21l-14.64,2V36.55l3.27-.43.24-1-2.39.32V33.55l2.85-.38.21-.87-3.4.45v-2.2l13.08-1.72V31l-6.85.9-.21.87,6-.79-.15,2.85ZM69.1,39.24l11.74-1.55v5.63L69.1,44.87Zm2.58,3.09,6.45-.85V40.2L71.68,41Zm2.09-6.64,3.87-.51.06-1L74,34.72Z"/><path d="M89,37.22c-.18.37-.39.79-.65,1.26s-.54.94-.84,1.43-.6,1-.9,1.43-.59.88-.85,1.25L83.4,41.47c.27-.36.56-.77.87-1.21s.6-.9.89-1.36.55-.92.79-1.36.44-.84.59-1.19Zm4-1.84v4.11a3.9,3.9,0,0,1-.14,1.18,1.66,1.66,0,0,1-.45.72,2.4,2.4,0,0,1-.81.46c-.33.11-.73.23-1.21.35l-1.17.28-.83-2.59.89-.22A2.29,2.29,0,0,0,90,39.4a.61.61,0,0,0,.2-.55V35.74l-5.6.74.59-7.74,2-.28,2.11-.34,2.14-.39,2.06-.41c.66-.14,1.29-.27,1.87-.41l1.48-.36.56,2.62-2.07.48c-.76.17-1.57.34-2.41.5l-2.6.49-2.58.46-.17,2.54,2.58-.34V31.06l2.78-.3v2.15l4.93-.65v2.47Zm2.72-.23c.17.2.39.46.65.79s.55.68.84,1.07.58.8.86,1.21.54.8.77,1.17l-2.36,1.83c-.19-.36-.4-.74-.65-1.16s-.51-.83-.8-1.23l-.81-1.15c-.27-.36-.51-.66-.73-.9Z"/></g></g></g></g></svg>