<svg xmlns="http://www.w3.org/2000/svg" xmlns:xlink="http://www.w3.org/1999/xlink" viewBox="0 0 150.31 107.95"><defs><style>.cls-1{fill:none;}.cls-2{clip-path:url(#clip-path);}.cls-3{stroke:#3c86a6;stroke-miterlimit:10;fill:url(#未命名的渐变_2);}.cls-4,.cls-6{fill:#5ac8f7;}.cls-5{fill:#3c86a6;}.cls-6{opacity:0.4;}.cls-7{opacity:0.2;}</style><clipPath id="clip-path" transform="translate(0.15 0.15)"><path class="cls-1" d="M.35,5.9V42.38l5.23,5.21V65.18L.35,70.44v31.3c2.16,2.17,3.37,3.39,5.55,5.55H144.1c2.17-2.16,3.39-3.38,5.55-5.55V5.9c-2.16-2.18-3.38-3.39-5.55-5.55H5.9C3.72,2.51,2.51,3.72.35,5.9Z"/></clipPath><linearGradient id="未命名的渐变_2" x1="0.35" y1="53.82" x2="149.65" y2="53.82" gradientTransform="matrix(-1, 0, 0, 1, 150.15, 0.15)" gradientUnits="userSpaceOnUse"><stop offset="0" stop-color="#5ac8f7" stop-opacity="0.2"/><stop offset="0.55" stop-color="#5ac8f7" stop-opacity="0.04"/></linearGradient></defs><title>看板5</title><g id="图层_2" data-name="图层 2"><g id="组件"><g id="看板5"><g class="cls-2"><polygon class="cls-3" points="82.62 0.5 149.81 0.5 149.81 107.45 82.62 107.45 0.5 107.45 0.5 0.5 82.62 0.5"/><path class="cls-4" d="M.35,107.29v0Z" transform="translate(0.15 0.15)"/></g><path class="cls-5" d="M5.65,107.54.1,102l-.1-.1V70.3L5.23,65V47.73L0,42.53V5.75l.1-.1L5.65.1l.1-.1h138.5l.1.1,5.55,5.55.1.1v96.14l-.1.1-5.55,5.55-.1.1H5.75Zm143.66-5.94V6L144,.69H6L.69,6v36.2l5.23,5.21V65.32L.69,70.58v31L6,107H144Z" transform="translate(0.15 0.15)"/><path class="cls-6" d="M.35,5.9V21.36h149.3V5.9c-2.16-2.18-3.38-3.39-5.55-5.55H5.9C3.72,2.51,2.51,3.72.35,5.9Z" transform="translate(0.15 0.15)"/><g class="cls-7"><path d="M56.76,58.59c-.17.37-.39.79-.65,1.26s-.54,1-.83,1.44-.6,1-.91,1.42-.58.88-.84,1.25l-2.35-1.12c.28-.36.57-.76.87-1.21s.61-.9.9-1.36.55-.92.79-1.36.43-.84.58-1.18Zm4-1.84v4.12A3.87,3.87,0,0,1,60.62,62a1.62,1.62,0,0,1-.44.73,2.38,2.38,0,0,1-.81.45c-.33.11-.73.23-1.21.35L57,63.85l-.83-2.59.89-.22a2.29,2.29,0,0,0,.73-.27.61.61,0,0,0,.2-.55v-3.1l-5.6.73L53,50.11l2-.28,2.1-.34c.71-.12,1.43-.25,2.14-.39l2-.42c.66-.14,1.28-.27,1.87-.41l1.56-.39.55,2.63L63.15,51l-2.42.51L58.14,52l-2.58.46L55.38,55,58,54.68V52.43l2.78-.3v2.15l4.93-.6v2.47Zm2.72-.23c.17.2.39.46.65.79L65,58.38c.29.4.58.8.86,1.21s.54.8.77,1.18l-2.36,1.82c-.19-.36-.41-.74-.65-1.16s-.52-.83-.79-1.23L62,59.05a10.13,10.13,0,0,0-.72-.9Z" transform="translate(0.15 0.15)"/><path d="M82.29,51.68v2.21l-14.64,2V53.68l3.27-.43.24-1-2.39.32V50.68l2.85-.38.21-.87-3.4.45v-2.2L81.51,46v2.2l-6.85.9-.21.87,6-.79L80.3,52ZM69.1,56.37l11.74-1.55v5.63L69.1,62Zm2.58,3.09,6.45-.85V57.33l-6.45.84Zm2.09-6.64,3.87-.51.06-1L74,51.85Z" transform="translate(0.15 0.15)"/><path d="M89,54.35c-.18.37-.39.79-.65,1.26s-.54.94-.84,1.43-.6,1-.9,1.43-.59.88-.85,1.25L83.4,58.6c.27-.36.56-.77.87-1.21s.6-.9.89-1.36.55-.92.79-1.36.44-.84.59-1.19Zm4-1.84v4.11a3.93,3.93,0,0,1-.14,1.18,1.66,1.66,0,0,1-.45.72,2.4,2.4,0,0,1-.81.46c-.33.11-.73.23-1.21.35l-1.17.28L88.37,57l.89-.22a2.55,2.55,0,0,0,.73-.27.61.61,0,0,0,.2-.55V52.87l-5.6.74.59-7.74,2-.28,2.11-.34,2.14-.39,2.06-.41c.66-.14,1.29-.27,1.87-.41l1.48-.36.56,2.62-2.07.48c-.76.17-1.57.34-2.41.5l-2.6.49-2.58.46-.17,2.54,2.58-.34V48.19l2.78-.3V50l4.93-.65v2.47Zm2.72-.23c.17.2.39.46.65.79s.55.68.84,1.07.58.8.86,1.21.54.8.77,1.17l-2.36,1.83c-.19-.36-.4-.74-.65-1.16S95.3,56.36,95,56l-.81-1.15c-.27-.36-.51-.66-.73-.9Z" transform="translate(0.15 0.15)"/></g></g></g></g></svg>