<svg xmlns="http://www.w3.org/2000/svg" xmlns:xlink="http://www.w3.org/1999/xlink" viewBox="0 0 104.91 150.52"><defs><style>.cls-1{fill:none;}.cls-2{clip-path:url(#clip-path);}.cls-3{stroke:#3c86a6;stroke-miterlimit:10;fill:url(#未命名的渐变_34);}.cls-4,.cls-6{fill:#5ac8f7;}.cls-5{fill:#3c86a6;}.cls-6{opacity:0.4;}.cls-7{opacity:0.2;}</style><clipPath id="clip-path" transform="translate(0.26 0.26)"><path class="cls-1" d="M.24,4.1V145.9l3.86,3.86h96.19l3.86-3.86V105.38l-3.64-3.66V48.42l3.64-3.62V4.1L100.29.24H4.1Z"/></clipPath><linearGradient id="未命名的渐变_34" x1="0.5" y1="75.26" x2="104.41" y2="75.26" gradientUnits="userSpaceOnUse"><stop offset="0.45" stop-color="#5ac8f7" stop-opacity="0.04"/><stop offset="1" stop-color="#5ac8f7" stop-opacity="0.2"/></linearGradient></defs><title>看板3</title><g id="图层_2" data-name="图层 2"><g id="组件"><g id="看板3"><g class="cls-2"><polygon class="cls-3" points="47.26 0.5 0.5 0.5 0.5 150.02 47.26 150.02 104.41 150.02 104.41 0.5 47.26 0.5"/><path class="cls-4" d="M104.15,149.76v0Z" transform="translate(0.26 0.26)"/></g><path class="cls-5" d="M100.39,150H4l-.07-.07L.07,146.07,0,146V4l.07-.07L3.93.07,4,0h96.39l.07.07,3.86,3.86.07.07V44.9l-3.64,3.62v53.1l3.64,3.66V146l-.07.07-3.86,3.86ZM4.2,149.52h96l3.72-3.72V105.48l-3.64-3.66V48.32l3.64-3.62V4.2L100.19.48H4.2L.48,4.2V145.8Z" transform="translate(0.26 0.26)"/><path class="cls-6" d="M104.15,4.1V14.87H.24V4.1L4.1.24h96.19Z" transform="translate(0.26 0.26)"/><g class="cls-7"><path d="M34,79.77c-.17.37-.39.79-.65,1.26s-.54,1-.83,1.44-.6,1-.91,1.42-.58.88-.84,1.25L28.38,84c.28-.36.57-.76.87-1.21s.61-.9.9-1.36.55-.92.79-1.36.43-.84.58-1.18Zm4-1.84v4.12a4.21,4.21,0,0,1-.14,1.17,1.62,1.62,0,0,1-.44.73,2.48,2.48,0,0,1-.81.45c-.33.11-.73.23-1.21.35L34.19,85l-.83-2.59.89-.22A2.38,2.38,0,0,0,35,82a.64.64,0,0,0,.2-.55V78.3l-5.6.73.59-7.74,2-.28,2.1-.34c.71-.12,1.43-.25,2.14-.39l2-.42c.66-.14,1.28-.27,1.87-.41l1.56-.39.55,2.63-2.07.47-2.42.51-2.59.48-2.58.46-.18,2.54,2.59-.29V73.61l2.78-.3v2.15l4.93-.6v2.47Zm2.72-.23c.17.2.39.46.65.79l.83,1.07c.29.4.58.8.86,1.21s.54.8.77,1.18l-2.36,1.82c-.19-.36-.41-.74-.65-1.16s-.52-.83-.79-1.23l-.82-1.15a10.13,10.13,0,0,0-.72-.9Z" transform="translate(0.26 0.26)"/><path d="M59.49,72.86v2.21L44.85,77V74.86l3.27-.43.24-1L46,73.75V71.86l2.85-.38.21-.87-3.4.45v-2.2l13.08-1.72v2.2l-6.85.9-.21.87,6-.79-.15,2.85ZM46.3,77.55,58,76v5.63L46.3,83.18Zm2.58,3.09,6.45-.85V78.51l-6.45.84ZM51,74l3.87-.51.06-.95L51.19,73Z" transform="translate(0.26 0.26)"/><path d="M66.18,75.53c-.18.37-.39.79-.65,1.26s-.54.94-.84,1.43-.6,1-.9,1.43-.59.88-.85,1.25L60.6,79.78c.27-.36.56-.77.87-1.21s.6-.9.89-1.36.55-.92.79-1.36.44-.84.59-1.19Zm4-1.84V77.8A4.24,4.24,0,0,1,70,79a1.76,1.76,0,0,1-.45.72,2.5,2.5,0,0,1-.81.46c-.33.11-.73.23-1.21.35l-1.17.28-.83-2.59.89-.22a2.67,2.67,0,0,0,.73-.27.64.64,0,0,0,.2-.55V74.05l-5.6.74.59-7.74,2-.28,2.11-.34L68.63,66l2.06-.41c.66-.14,1.29-.27,1.87-.41L74,64.86l.56,2.62L72.52,68c-.76.17-1.57.34-2.41.5l-2.6.49-2.58.46L64.76,72l2.58-.34V69.37l2.78-.3v2.15l4.93-.65V73Zm2.72-.23c.17.2.39.46.65.79s.54.68.83,1.07.58.8.86,1.21.54.8.77,1.17l-2.36,1.83c-.19-.36-.4-.74-.65-1.16s-.51-.83-.79-1.23L71.4,76c-.27-.36-.51-.66-.73-.9Z" transform="translate(0.26 0.26)"/></g></g></g></g></svg>