<svg xmlns="http://www.w3.org/2000/svg" xmlns:xlink="http://www.w3.org/1999/xlink" viewBox="0 0 150.79 26.06"><defs><style>.cls-1{fill:none;}.cls-2{clip-path:url(#clip-path);}.cls-3{stroke:#3c86a6;stroke-miterlimit:10;fill:url(#未命名的渐变_34);}.cls-4,.cls-6{fill:#5ac8f7;}.cls-5{fill:#3c86a6;}.cls-6{opacity:0.4;}.cls-7{opacity:0.2;}</style><clipPath id="clip-path" transform="translate(0.37)"><path class="cls-1" d="M148.75,25.56H1.31L.13,24.39V2.47L1.31,1.29H35.44l.68,1.19h77.72l.69-1.19h34.22l1.18,1.18V24.39Z"/></clipPath><linearGradient id="未命名的渐变_34" x1="0.5" y1="13.43" x2="150.29" y2="13.43" gradientUnits="userSpaceOnUse"><stop offset="0.45" stop-color="#5ac8f7" stop-opacity="0.04"/><stop offset="1" stop-color="#5ac8f7" stop-opacity="0.2"/></linearGradient></defs><title>看板9</title><g id="图层_2" data-name="图层 2"><g id="组件"><g id="看板9"><g class="cls-2"><polygon class="cls-3" points="67.91 1.29 0.5 1.29 0.5 25.56 67.91 25.56 150.29 25.56 150.29 1.29 67.91 1.29"/><path class="cls-4" d="M149.93,25.56v0Z" transform="translate(0.37)"/></g><path class="cls-5" d="M148.78,25.63H1.28L.06,24.42v-22L1.28,1.22h34.2l.68,1.19H113.8l.68-1.19h34.3L150,2.44v22ZM1.34,25.49H148.72l1.13-1.13V2.5l-1.13-1.14H114.57l-.69,1.19H36.08l-.69-1.19h-34L.21,2.5V24.36Z" transform="translate(0.37)"/><rect class="cls-4" x="0.37" width="0.59" height="0.59"/><rect class="cls-4" x="1.25" width="0.29" height="0.59"/><rect class="cls-4" x="22.38" width="0.59" height="0.59"/><rect class="cls-4" x="23.27" width="0.29" height="0.59"/><rect class="cls-4" x="91.73" width="0.59" height="0.59"/><rect class="cls-4" x="92.61" width="0.29" height="0.59"/><rect class="cls-4" x="57.22" width="0.59" height="0.59" transform="translate(115.39 0.59) rotate(-180)"/><rect class="cls-4" x="56.63" width="0.29" height="0.59" transform="translate(113.93 0.59) rotate(-180)"/><polygon class="cls-6" points="20.14 0.59 3.87 0.59 4.21 0 20.48 0 20.14 0.59"/><polygon class="cls-6" points="75.88 0 73.99 0 59.61 0 59.95 0.59 73.65 0.59 76.22 0.59 89.92 0.59 90.26 0 75.88 0"/><rect class="cls-4" x="127.1" width="0.59" height="0.59"/><rect class="cls-4" x="127.98" width="0.29" height="0.59"/><rect class="cls-4" x="149.12" width="0.59" height="0.59"/><rect class="cls-4" x="150" width="0.29" height="0.59"/><polygon class="cls-6" points="146.88 0.59 130.61 0.59 130.95 0 147.22 0 146.88 0.59"/><g class="cls-7"><path d="M56.76,17.59c-.17.37-.39.79-.65,1.26s-.54,1-.83,1.44-.6,1-.91,1.42-.58.88-.84,1.25l-2.35-1.12c.28-.36.57-.76.87-1.21s.61-.9.9-1.36.55-.92.79-1.36.43-.84.58-1.18Zm4-1.84v4.12A3.87,3.87,0,0,1,60.62,21a1.67,1.67,0,0,1-.44.73,2.38,2.38,0,0,1-.81.45c-.33.11-.73.23-1.21.35L57,22.85l-.83-2.59.89-.22a2.29,2.29,0,0,0,.73-.27.61.61,0,0,0,.2-.55v-3.1l-5.6.73L53,9.11l2-.28,2.1-.34c.71-.12,1.43-.25,2.14-.39l2-.42c.66-.14,1.28-.27,1.87-.41l1.56-.39.55,2.63L63.15,10l-2.42.51L58.14,11l-2.58.46L55.38,14,58,13.68V11.43l2.78-.3v2.15l4.93-.6v2.47Zm2.72-.23c.17.2.39.46.65.79L65,17.38c.29.4.58.8.86,1.21s.54.8.77,1.18l-2.36,1.82c-.19-.36-.41-.74-.65-1.16s-.52-.83-.79-1.23L62,18.05a7.89,7.89,0,0,0-.72-.9Z" transform="translate(0.37)"/><path d="M82.29,10.68v2.21L67.65,14.84V12.68l3.27-.43.24-1-2.39.32V9.68l2.85-.38.21-.87-3.4.45V6.68L81.51,5v2.2l-6.85.9-.21.87,6-.79L80.3,11ZM69.1,15.37l11.74-1.55v5.63L69.1,21Zm2.58,3.09,6.45-.85V16.33l-6.45.84Zm2.09-6.64,3.87-.51.06-1L74,10.85Z" transform="translate(0.37)"/><path d="M89,13.35c-.18.37-.39.79-.65,1.26s-.54.94-.84,1.43-.6,1-.9,1.43-.59.88-.85,1.25L83.4,17.6c.27-.36.56-.77.87-1.21s.6-.9.89-1.36.55-.92.79-1.36.44-.84.59-1.19Zm4-1.84v4.11a4,4,0,0,1-.14,1.18,1.66,1.66,0,0,1-.45.72,2.4,2.4,0,0,1-.81.46c-.33.11-.73.23-1.21.35l-1.17.28L88.37,16l.89-.22a2.89,2.89,0,0,0,.73-.27.61.61,0,0,0,.2-.55V11.87l-5.6.74.59-7.74,2-.28,2.11-.34,2.14-.39,2.06-.41c.66-.14,1.29-.27,1.87-.41l1.48-.36L97.4,5.3l-2.07.48c-.76.17-1.57.34-2.41.5l-2.6.49-2.58.46-.17,2.54,2.58-.34V7.19l2.78-.3V9l4.93-.65v2.47Zm2.72-.23c.17.2.39.46.65.79s.55.68.84,1.07.58.8.86,1.21.54.8.77,1.17l-2.36,1.83c-.19-.36-.4-.74-.65-1.16S95.3,15.36,95,15l-.81-1.15c-.27-.36-.51-.66-.73-.9Z" transform="translate(0.37)"/></g></g></g></g></svg>