<svg xmlns="http://www.w3.org/2000/svg" viewBox="0 0 150 20.28"><defs><style>.cls-1{opacity:0.2;}.cls-2{fill:#5ac8f7;}.cls-3{fill:#3c86a6;}.cls-4{opacity:0.4;}.cls-5{opacity:0.2;}</style></defs><title>看板1</title><g id="图层_2" data-name="图层 2"><g id="组件"><g id="看板1"><g class="cls-1"><path class="cls-2" d="M148.75,6.24h-16.3l-1.72,3.19H19.27L17.55,6.24H1.25L.07,7.42V12.9H64.76l.68-1.19h19l.68,1.19h64.79V7.42Z"/></g><path class="cls-3" d="M150,13H85.1l-.68-1.18H65.49L64.8,13H0V7.39L1.22,6.17H17.6l1.71,3.18H130.69l1.71-3.18h16.38L150,7.39Zm-64.81-.14h64.66V7.45l-1.13-1.13H132.49L130.78,9.5H19.22L17.51,6.32H1.28L.15,7.45v5.38H64.72l.68-1.19H84.5Z"/><g class="cls-1"><polygon class="cls-2" points="50.39 12.9 33.17 12.9 35.17 9.43 52.39 9.43 50.39 12.9"/></g><g class="cls-1"><polygon class="cls-2" points="99.03 12.9 85.14 12.9 84.46 11.71 65.44 11.71 64.76 12.9 50.87 12.9 52.88 9.43 97.03 9.43 97.03 9.43 99.03 12.9"/></g><g class="cls-1"><polygon class="cls-2" points="32.02 12.9 31.1 12.9 33.1 9.43 34.03 9.43 32.02 12.9"/></g><g class="cls-1"><polygon class="cls-2" points="99.47 12.9 116.69 12.9 114.68 9.43 97.46 9.43 99.47 12.9"/></g><g class="cls-1"><polygon class="cls-2" points="117.83 12.9 118.76 12.9 116.75 9.43 115.83 9.43 117.83 12.9"/></g><rect class="cls-2" x="0.07" y="14.04" width="64.09" height="0.07"/><rect class="cls-2" x="0.07" y="13.05" width="0.32" height="0.59"/><path class="cls-2" d="M.47,13.71H0V13H.47Zm-.32-.15H.32v-.44H.15Z"/><rect class="cls-2" x="0.9" y="13.05" width="0.15" height="0.59"/><rect class="cls-2" x="0.82" y="12.97" width="0.29" height="0.73"/><rect class="cls-2" x="26.75" y="13.05" width="0.32" height="0.59"/><path class="cls-2" d="M27.15,13.71h-.47V13h.47Zm-.32-.15H27v-.44h-.17Z"/><g class="cls-4"><polygon class="cls-2" points="24.54 13.63 3.45 13.63 3.79 13.05 24.88 13.05 24.54 13.63"/></g><rect class="cls-2" x="27.58" y="13.05" width="0.15" height="0.59"/><rect class="cls-2" x="27.5" y="12.97" width="0.29" height="0.73"/><rect class="cls-2" x="49.66" y="13.05" width="0.32" height="0.59"/><path class="cls-2" d="M50.06,13.71h-.47V13h.47Zm-.32-.15h.17v-.44h-.17Z"/><rect class="cls-2" x="50.48" y="13.05" width="0.15" height="0.59"/><rect class="cls-2" x="50.41" y="12.97" width="0.29" height="0.73"/><rect class="cls-2" x="64.58" y="13.05" width="0.15" height="0.59"/><rect class="cls-2" x="64.51" y="12.97" width="0.29" height="0.73"/><rect class="cls-2" x="85.83" y="14.04" width="64.09" height="0.07"/><rect class="cls-2" x="149.6" y="13.05" width="0.32" height="0.59" transform="translate(299.53 26.68) rotate(-180)"/><path class="cls-2" d="M150,13.71h-.47V13H150Zm-.32-.15h.17v-.44h-.17Z"/><rect class="cls-2" x="148.96" y="13.05" width="0.15" height="0.59" transform="translate(298.06 26.68) rotate(-180)"/><rect class="cls-2" x="148.88" y="12.97" width="0.29" height="0.73"/><rect class="cls-2" x="122.92" y="13.05" width="0.32" height="0.59" transform="translate(246.17 26.68) rotate(-180)"/><path class="cls-2" d="M123.32,13.71h-.47V13h.47Zm-.32-.15h.17v-.44H123Z"/><g class="cls-4"><polygon class="cls-2" points="125.12 13.63 146.21 13.63 146.55 13.05 125.46 13.05 125.12 13.63"/></g><rect class="cls-2" x="122.28" y="13.05" width="0.15" height="0.59" transform="translate(244.7 26.68) rotate(-180)"/><rect class="cls-2" x="122.2" y="12.97" width="0.29" height="0.73"/><rect class="cls-2" x="100.02" y="13.05" width="0.32" height="0.59" transform="translate(200.35 26.68) rotate(-180)"/><path class="cls-2" d="M100.41,13.71h-.47V13h.47Zm-.32-.15h.17v-.44h-.17Z"/><rect class="cls-2" x="99.37" y="13.05" width="0.15" height="0.59" transform="translate(198.88 26.68) rotate(-180)"/><rect class="cls-2" x="99.3" y="12.97" width="0.29" height="0.73"/><rect class="cls-2" x="85.27" y="13.05" width="0.15" height="0.59" transform="translate(170.69 26.68) rotate(-180)"/><rect class="cls-2" x="85.2" y="12.97" width="0.29" height="0.73"/><g class="cls-5"><path d="M56.76,14.91c-.17.37-.39.79-.65,1.26s-.54,1-.83,1.44-.6,1-.91,1.42-.58.88-.84,1.25l-2.35-1.12c.28-.36.57-.76.87-1.21s.61-.9.9-1.36.55-.92.79-1.36.43-.84.58-1.18Zm4-1.84v4.12a3.87,3.87,0,0,1-.14,1.17,1.62,1.62,0,0,1-.44.73,2.38,2.38,0,0,1-.81.45c-.33.11-.73.23-1.21.35L57,20.17l-.83-2.59.89-.22a2.29,2.29,0,0,0,.73-.27.61.61,0,0,0,.2-.55v-3.1l-5.6.73L53,6.43l2-.28,2.1-.34c.71-.12,1.43-.25,2.14-.39l2-.42c.66-.14,1.28-.27,1.87-.41l1.56-.39.55,2.63-2.07.47-2.42.51-2.59.48-2.58.46-.18,2.54L58,11V8.75l2.78-.3V10.6l4.93-.6v2.47Zm2.72-.23c.17.2.39.46.65.79L65,14.7c.29.4.58.8.86,1.21s.54.8.77,1.18l-2.36,1.82c-.19-.36-.41-.74-.65-1.16s-.52-.83-.79-1.23L62,15.37a10.13,10.13,0,0,0-.72-.9Z"/><path d="M82.29,8v2.21L67.65,12.16V10l3.27-.43.24-1-2.39.32V7l2.85-.38.21-.87-3.4.45V4L81.51,2.28v2.2l-6.85.9-.21.87,6-.79L80.3,8.31ZM69.1,12.69l11.74-1.55v5.63L69.1,18.32Zm2.58,3.09,6.45-.85V13.65l-6.45.84Zm2.09-6.64,3.87-.51.06-1L74,8.17Z"/><path d="M89,10.67c-.18.37-.39.79-.65,1.26s-.54.94-.84,1.43-.6,1-.9,1.43-.59.88-.85,1.25L83.4,14.92c.27-.36.56-.77.87-1.21s.6-.9.89-1.36.55-.92.79-1.36.44-.84.59-1.19Zm4-1.84v4.11a3.9,3.9,0,0,1-.14,1.18,1.66,1.66,0,0,1-.45.72,2.4,2.4,0,0,1-.81.46c-.33.11-.73.23-1.21.35l-1.17.28-.83-2.59.89-.22a2.55,2.55,0,0,0,.73-.27.61.61,0,0,0,.2-.55V9.19l-5.6.74.59-7.74,2-.28,2.11-.34,2.14-.39L93.49.77C94.15.63,94.78.5,95.36.36L96.84,0l.56,2.62-2.07.48c-.76.17-1.57.34-2.41.5l-2.6.49-2.58.46-.17,2.54,2.58-.34V4.51l2.78-.3V6.36l4.93-.65V8.18ZM95.7,8.6c.17.2.39.46.65.79s.55.68.84,1.07.58.8.86,1.21.54.8.77,1.17l-2.36,1.83c-.19-.36-.4-.74-.65-1.16s-.51-.83-.8-1.23l-.81-1.15c-.27-.36-.51-.66-.73-.9Z"/></g></g></g></g></svg>