<svg xmlns="http://www.w3.org/2000/svg" viewBox="0 0 150 60.81"><defs><style>.cls-1,.cls-2,.cls-3{fill:#5ac8f7;}.cls-1{opacity:0.85;}.cls-2{opacity:0.55;}.cls-3{opacity:0.35;}.cls-4{opacity:0.2;}</style></defs><title>箭头</title><g id="图层_2" data-name="图层 2"><g id="组件"><g id="箭头"><polygon class="cls-1" points="59.78 29.74 28.71 60.81 0.68 60.81 0 60.13 30.41 29.74 0.67 0 30.06 0 59.78 29.74"/><polygon class="cls-2" points="104.89 29.74 73.82 60.81 45.79 60.81 45.11 60.13 75.52 29.74 45.78 0 75.17 0 104.89 29.74"/><polygon class="cls-3" points="150 29.74 118.92 60.81 90.9 60.81 90.22 60.13 120.62 29.74 90.89 0 120.28 0 150 29.74"/><g class="cls-4"><path d="M56.76,35.18c-.17.37-.39.79-.65,1.26s-.54,1-.83,1.44-.6,1-.91,1.42-.58.88-.84,1.25l-2.35-1.12c.28-.36.57-.76.87-1.21s.61-.9.9-1.36.55-.92.79-1.36.43-.84.58-1.18Zm4-1.84v4.12a3.87,3.87,0,0,1-.14,1.17,1.73,1.73,0,0,1-.44.73,2.38,2.38,0,0,1-.81.45c-.33.11-.73.23-1.21.35L57,40.44l-.83-2.59.89-.22a2.29,2.29,0,0,0,.73-.27.61.61,0,0,0,.2-.55v-3.1l-5.6.73L53,26.7l2-.28,2.1-.34c.71-.12,1.43-.25,2.14-.39l2-.42c.66-.14,1.28-.27,1.87-.41l1.56-.39.55,2.63-2.07.47-2.42.51-2.59.48L55.56,29l-.18,2.54L58,31.27V29l2.78-.3v2.15l4.93-.6v2.47Zm2.72-.23c.17.2.39.46.65.79L65,35c.29.4.58.8.86,1.21s.54.8.77,1.18l-2.36,1.82c-.19-.36-.41-.74-.65-1.16s-.52-.83-.79-1.23L62,35.64a7.89,7.89,0,0,0-.72-.9Z"/><path d="M82.29,28.27v2.21L67.65,32.43V30.27l3.27-.43.24-1-2.39.32V27.27l2.85-.38.21-.87-3.4.45v-2.2l13.08-1.72v2.2l-6.85.9-.21.87,6-.79-.15,2.85ZM69.1,33l11.74-1.55V37L69.1,38.59Zm2.58,3.09,6.45-.85V33.92l-6.45.84Zm2.09-6.64,3.87-.51L77.7,28,74,28.44Z"/><path d="M89,30.94c-.18.37-.39.79-.65,1.26s-.54.94-.84,1.43-.6,1-.9,1.43-.59.88-.85,1.25L83.4,35.19c.27-.36.56-.77.87-1.21s.6-.9.89-1.36.55-.92.79-1.36.44-.84.59-1.19Zm4-1.84v4.11a4,4,0,0,1-.14,1.18,1.66,1.66,0,0,1-.45.72,2.4,2.4,0,0,1-.81.46c-.33.11-.73.23-1.21.35l-1.17.28-.83-2.59.89-.22a2.89,2.89,0,0,0,.73-.27.61.61,0,0,0,.2-.55V29.46l-5.6.74.59-7.74,2-.28,2.11-.34,2.14-.39L93.49,21c.66-.14,1.29-.27,1.87-.41l1.48-.36.56,2.62-2.07.48c-.76.17-1.57.34-2.41.5l-2.6.49-2.58.46-.17,2.54L90.15,27V24.78l2.78-.3v2.15L97.86,26v2.47Zm2.72-.23c.17.2.39.46.65.79s.55.68.84,1.07.58.8.86,1.21.54.8.77,1.17l-2.36,1.83c-.19-.36-.4-.74-.65-1.16S95.3,33,95,32.55L94.2,31.4c-.27-.36-.51-.66-.73-.9Z"/></g></g></g></g></svg>