<svg xmlns="http://www.w3.org/2000/svg" viewBox="0 0 150 97.22"><defs><style>.cls-1{fill:#a63c3c;}.cls-2{fill:#f75a5a;}.cls-3{opacity:0.2;}</style></defs><title>警告</title><g id="图层_2" data-name="图层 2"><g id="组件"><g id="警告"><path class="cls-1" d="M150,76.27H0V21H150V34l-6.21,4.84V54.76L150,59.64ZM.82,75.45H149.17V60L143,55.16V38.42l6.2-4.83V21.78H.82Z"/><path class="cls-1" d="M150,21.79H0v-15L2.31,4.51C3.73,3.1,5,1.87,6.7.12L6.82,0H143.17L150,6.83ZM.82,21H149.17V7.17L142.83.82H7.17C5.49,2.51,4.28,3.71,2.89,5.1L.82,7.17Z"/><path class="cls-1" d="M143.17,97.22H6.83L0,90.4v-15H150v15Zm-136-.82H142.83l6.35-6.34V76.27H.83V90.06Z"/><polygon class="cls-2" points="12.16 0.42 0.41 20.76 0.41 14.51 8.55 0.42 12.16 0.42"/><polygon class="cls-2" points="20.54 0.42 8.45 21.37 4.84 21.37 16.94 0.42 20.54 0.42"/><polygon class="cls-2" points="28.92 0.42 16.82 21.37 13.23 21.37 25.33 0.42 28.92 0.42"/><polygon class="cls-2" points="37.31 0.42 25.21 21.37 21.61 21.37 33.7 0.42 37.31 0.42"/><polygon class="cls-2" points="45.7 0.42 33.6 21.37 29.99 21.37 42.09 0.42 45.7 0.42"/><polygon class="cls-2" points="54.08 0.42 41.98 21.37 38.38 21.37 50.48 0.42 54.08 0.42"/><polygon class="cls-2" points="62.46 0.42 50.36 21.37 46.77 21.37 58.87 0.42 62.46 0.42"/><polygon class="cls-2" points="70.85 0.42 58.75 21.37 55.15 21.37 67.24 0.42 70.85 0.42"/><polygon class="cls-2" points="79.23 0.42 67.14 21.37 63.53 21.37 75.63 0.42 79.23 0.42"/><polygon class="cls-2" points="87.61 0.42 75.52 21.37 71.92 21.37 84.02 0.42 87.61 0.42"/><polygon class="cls-2" points="96 0.42 83.9 21.37 80.3 21.37 92.4 0.42 96 0.42"/><polygon class="cls-2" points="104.39 0.42 92.29 21.37 88.68 21.37 100.78 0.42 104.39 0.42"/><polygon class="cls-2" points="112.77 0.42 100.67 21.37 97.07 21.37 109.17 0.42 112.77 0.42"/><polygon class="cls-2" points="121.15 0.42 109.06 21.37 105.46 21.37 117.56 0.42 121.15 0.42"/><polygon class="cls-2" points="129.54 0.42 117.44 21.37 113.84 21.37 125.94 0.42 129.54 0.42"/><polygon class="cls-2" points="137.77 0.42 125.67 21.37 122.22 21.37 134.32 0.42 137.77 0.42"/><polygon class="cls-2" points="144.9 2.31 133.9 21.37 130.45 21.37 142.55 0.41 143 0.41 144.9 2.31"/><path class="cls-2" d="M149.58,7V8.45l-7.45,12.92h-3.45l9.25-16Z"/><polygon class="cls-2" points="146.91 21.37 149.59 16.74 149.59 21.37 146.91 21.37"/><polygon class="cls-2" points="0.41 20.76 0.41 21.37 0.06 21.37 0.41 20.76"/><path class="cls-2" d="M15.1,80.37A6.61,6.61,0,1,0,21.7,87,6.6,6.6,0,0,0,15.1,80.37Zm2.62,8.75-.48.47L15.1,87.45,13,89.59l-.47-.47L14.62,87l-2.14-2.14.47-.48L15.1,86.5l2.14-2.15.48.48L15.57,87Z"/><g class="cls-3"><path d="M56.76,53.38c-.17.37-.39.79-.65,1.26s-.54,1-.83,1.44-.6,1-.91,1.42-.58.88-.84,1.25l-2.35-1.12c.28-.36.57-.76.87-1.21s.61-.9.9-1.36.55-.92.79-1.36.43-.84.58-1.18Zm4-1.84v4.12a3.83,3.83,0,0,1-.14,1.17,1.62,1.62,0,0,1-.44.73,2.22,2.22,0,0,1-.81.45c-.33.11-.73.23-1.21.35L57,58.64l-.83-2.59.89-.22a2.29,2.29,0,0,0,.73-.27A.6.6,0,0,0,58,55v-3.1l-5.6.73L53,44.9l2-.28,2.1-.34c.71-.12,1.43-.25,2.14-.39l2-.42c.66-.14,1.28-.27,1.87-.41l1.56-.39.55,2.63-2.07.47-2.42.51-2.59.48-2.58.46-.18,2.54L58,49.47V47.22l2.78-.3v2.15l4.93-.6v2.47Zm2.72-.23c.17.2.39.46.65.79L65,53.17c.29.4.58.8.86,1.21s.54.8.77,1.18l-2.36,1.82c-.19-.36-.41-.74-.65-1.16s-.52-.83-.79-1.23L62,53.84a10.13,10.13,0,0,0-.72-.9Z"/><path d="M82.29,46.47v2.21l-14.64,2V48.47L70.92,48l.24-1-2.39.32V45.47l2.85-.38.21-.87-3.4.45v-2.2l13.08-1.72V43l-6.85.9-.21.87,6-.79-.15,2.85ZM69.1,51.16l11.74-1.55v5.63L69.1,56.79Zm2.58,3.09,6.45-.85V52.12L71.68,53Zm2.09-6.64,3.87-.51.06-1L74,46.64Z"/><path d="M89,49.14c-.18.37-.39.79-.65,1.26s-.54.94-.84,1.43-.6,1-.9,1.43-.59.88-.85,1.25L83.4,53.39c.27-.36.56-.77.87-1.21s.6-.9.89-1.36.55-.92.79-1.36.44-.84.59-1.19Zm4-1.84v4.11a3.9,3.9,0,0,1-.14,1.18,1.66,1.66,0,0,1-.45.72,2.25,2.25,0,0,1-.81.46c-.33.11-.73.23-1.21.35l-1.17.28-.83-2.59.89-.22a2.29,2.29,0,0,0,.73-.27.6.6,0,0,0,.2-.55V47.66l-5.6.74.59-7.74,2-.28L89.29,40l2.14-.39,2.06-.41c.66-.14,1.29-.27,1.87-.41l1.48-.36.56,2.62-2.07.48c-.76.17-1.57.34-2.41.5l-2.6.49L87.74,43l-.17,2.54,2.58-.34V43l2.78-.3v2.15l4.93-.65v2.47Zm2.72-.23c.17.2.39.46.65.79s.55.68.84,1.07.58.8.86,1.21.54.8.77,1.17l-2.36,1.83c-.19-.36-.4-.74-.65-1.16s-.51-.83-.8-1.23L94.2,49.6c-.27-.36-.51-.66-.73-.9Z"/></g></g></g></g></svg>