<svg xmlns="http://www.w3.org/2000/svg" viewBox="0 0 150 29.55"><defs><style>.cls-1{fill:#3c86a6;}.cls-2{opacity:0.4;}.cls-3{fill:#5ac8f7;}.cls-4{opacity:0.2;}.cls-5{opacity:0.2;}</style></defs><title>进度条</title><g id="图层_2" data-name="图层 2"><g id="组件"><g id="进度条"><path class="cls-1" d="M139.05,26.55H12.58l11-19H150ZM13.22,26.18H138.84L149.37,8H23.74Z"/><path class="cls-1" d="M8,26.55H0L10.84,7.77,6.36,0h8l.06.09,4.43,7.68ZM.63,26.18H7.79L18.43,7.77,14.15.37H7l4.27,7.4Z"/><g class="cls-2"><path class="cls-1" d="M6.74,24.35H3.8L13.38,7.77,10.16,2.2H13.1l3.21,5.57ZM4.44,24H6.52L15.89,7.77l-3-5.21H10.8l3,5.21Z"/></g><polygon class="cls-3" points="24.78 21.72 30.15 12.42 33.69 12.42 28.32 21.72 24.78 21.72"/><polygon class="cls-1" points="31.13 5.13 29.35 5.13 28.56 3.75 30.33 3.75 31.13 5.13"/><polygon class="cls-1" points="74.5 5.13 31.79 5.13 31 3.75 73.71 3.75 74.5 5.13"/><polygon class="cls-3" points="30.39 21.72 35.76 12.42 39.3 12.42 33.93 21.72 30.39 21.72"/><polygon class="cls-3" points="36 21.72 41.37 12.42 44.91 12.42 39.54 21.72 36 21.72"/><polygon class="cls-3" points="41.61 21.72 46.98 12.42 50.52 12.42 45.15 21.72 41.61 21.72"/><polygon class="cls-3" points="47.22 21.72 52.59 12.42 56.13 12.42 50.76 21.72 47.22 21.72"/><g class="cls-4"><polygon class="cls-3" points="52.83 21.72 58.19 12.42 61.74 12.42 56.37 21.72 52.83 21.72"/></g><g class="cls-4"><polygon class="cls-3" points="58.43 21.72 63.8 12.42 67.34 12.42 61.98 21.72 58.43 21.72"/></g><g class="cls-4"><polygon class="cls-3" points="64.04 21.72 69.41 12.42 72.95 12.42 67.58 21.72 64.04 21.72"/></g><g class="cls-4"><polygon class="cls-3" points="69.65 21.72 75.02 12.42 78.56 12.42 73.19 21.72 69.65 21.72"/></g><g class="cls-4"><polygon class="cls-3" points="75.26 21.72 80.63 12.42 84.17 12.42 78.8 21.72 75.26 21.72"/></g><g class="cls-4"><polygon class="cls-3" points="80.87 21.72 86.24 12.42 89.78 12.42 84.41 21.72 80.87 21.72"/></g><g class="cls-4"><polygon class="cls-3" points="86.48 21.72 91.85 12.42 95.39 12.42 90.02 21.72 86.48 21.72"/></g><g class="cls-4"><polygon class="cls-3" points="92.09 21.72 97.45 12.42 101 12.42 95.63 21.72 92.09 21.72"/></g><g class="cls-4"><polygon class="cls-3" points="97.69 21.72 103.06 12.42 106.61 12.42 101.24 21.72 97.69 21.72"/></g><g class="cls-4"><polygon class="cls-3" points="103.3 21.72 108.67 12.42 112.22 12.42 106.85 21.72 103.3 21.72"/></g><g class="cls-4"><polygon class="cls-3" points="108.91 21.72 114.28 12.42 117.82 12.42 112.45 21.72 108.91 21.72"/></g><g class="cls-4"><polygon class="cls-3" points="114.52 21.72 119.89 12.42 123.43 12.42 118.06 21.72 114.52 21.72"/></g><g class="cls-4"><polygon class="cls-3" points="120.13 21.72 125.5 12.42 129.04 12.42 123.67 21.72 120.13 21.72"/></g><g class="cls-4"><polygon class="cls-3" points="125.74 21.72 131.11 12.42 134.65 12.42 129.28 21.72 125.74 21.72"/></g><rect class="cls-1" x="12.9" y="28.45" width="0.73" height="1.1"/><path class="cls-1" d="M135.76,29.55h-1.45v-1.1h1.45Zm-2.91,0H131.4v-1.1h1.45Zm-2.9,0h-1.46v-1.1H130Zm-2.91,0h-1.45v-1.1H127Zm-2.91,0h-1.45v-1.1h1.45Zm-2.91,0h-1.45v-1.1h1.45Zm-2.9,0h-1.46v-1.1h1.46Zm-2.91,0H114v-1.1h1.46Zm-2.91,0h-1.45v-1.1h1.45Zm-2.91,0h-1.45v-1.1h1.45Zm-2.91,0h-1.45v-1.1h1.45Zm-2.9,0h-1.46v-1.1h1.46Zm-2.91,0H99.41v-1.1h1.46Zm-2.91,0H96.51v-1.1H98Zm-2.91,0H93.6v-1.1h1.45Zm-2.9,0H90.69v-1.1h1.46Zm-2.91,0H87.78v-1.1h1.46Zm-2.91,0H84.88v-1.1h1.45Zm-2.91,0H82v-1.1h1.45Zm-2.91,0H79.06v-1.1h1.45Zm-2.9,0H76.15v-1.1h1.46Zm-2.91,0H73.24v-1.1H74.7Zm-2.91,0H70.34v-1.1h1.45Zm-2.91,0H67.43v-1.1h1.45Zm-2.91,0H64.52v-1.1H66Zm-2.9,0H61.61v-1.1h1.46Zm-2.91,0H58.71v-1.1h1.45Zm-2.91,0H55.8v-1.1h1.45Zm-2.91,0H52.89v-1.1h1.45Zm-2.9,0H50v-1.1h1.46Zm-2.91,0H47.07v-1.1h1.46Zm-2.91,0H44.17v-1.1h1.45Zm-2.91,0H41.26v-1.1h1.45Zm-2.91,0H38.35v-1.1H39.8Zm-2.9,0H35.44v-1.1H36.9Zm-2.91,0H32.53v-1.1H34Zm-2.91,0H29.63v-1.1h1.45Zm-2.91,0H26.72v-1.1h1.45Zm-2.9,0H23.81v-1.1h1.46Zm-2.91,0H20.9v-1.1h1.46Zm-2.91,0H18v-1.1h1.45Zm-2.91,0H15.09v-1.1h1.45Z"/><rect class="cls-1" x="137.22" y="28.45" width="0.73" height="1.1"/><g class="cls-5"><path d="M56.76,19.54c-.17.37-.39.79-.65,1.26s-.54,1-.83,1.44-.6,1-.91,1.42-.58.88-.84,1.25l-2.35-1.12c.28-.36.57-.76.87-1.21s.61-.9.9-1.36.55-.92.79-1.36.43-.84.58-1.18Zm4-1.84v4.12A3.83,3.83,0,0,1,60.62,23a1.62,1.62,0,0,1-.44.73,2.09,2.09,0,0,1-.81.45c-.33.11-.73.23-1.21.35L57,24.8l-.83-2.59.89-.22a2.07,2.07,0,0,0,.73-.27.6.6,0,0,0,.2-.55v-3.1l-5.6.73L53,11.06l2-.28,2.1-.34c.71-.12,1.43-.25,2.14-.39l2-.42c.66-.14,1.28-.27,1.87-.41l1.56-.39.55,2.63-2.07.47-2.42.51-2.59.48-2.58.46-.18,2.54L58,15.63V13.38l2.78-.3v2.15l4.93-.6V17.1Zm2.72-.23c.17.2.39.46.65.79L65,19.33c.29.4.58.8.86,1.21s.54.8.77,1.18l-2.36,1.82c-.19-.36-.41-.74-.65-1.16s-.52-.83-.79-1.23L62,20a10.13,10.13,0,0,0-.72-.9Z"/><path d="M82.29,12.63v2.21L67.65,16.79V14.63l3.27-.43.24-1-2.39.32V11.63l2.85-.38.21-.87-3.4.45V8.63L81.51,6.91v2.2l-6.85.9-.21.87,6-.79-.15,2.85ZM69.1,17.32l11.74-1.55V21.4L69.1,23Zm2.58,3.09,6.45-.85V18.28l-6.45.84Zm2.09-6.64,3.87-.51.06-.95L74,12.8Z"/><path d="M89,15.3c-.18.37-.39.79-.65,1.26s-.54.94-.84,1.43-.6,1-.9,1.43-.59.88-.85,1.25L83.4,19.55c.27-.36.56-.77.87-1.21s.6-.9.89-1.36.55-.92.79-1.36.44-.84.59-1.19Zm4-1.84v4.11a3.9,3.9,0,0,1-.14,1.18,1.6,1.6,0,0,1-.45.72,2.11,2.11,0,0,1-.81.46c-.33.11-.73.23-1.21.35l-1.17.28L88.37,18l.89-.22a2.29,2.29,0,0,0,.73-.27.6.6,0,0,0,.2-.55V13.82l-5.6.74.59-7.74,2-.28,2.11-.34,2.14-.39,2.06-.41c.66-.14,1.29-.27,1.87-.41l1.48-.36.56,2.62-2.07.48c-.76.17-1.57.34-2.41.5l-2.6.49-2.58.46-.17,2.54,2.58-.34V9.14l2.78-.3V11l4.93-.65v2.47Zm2.72-.23c.17.2.39.46.65.79s.55.68.84,1.07.58.8.86,1.21.54.8.77,1.17L96.46,19.3c-.19-.36-.4-.74-.65-1.16s-.51-.83-.8-1.23l-.81-1.15c-.27-.36-.51-.66-.73-.9Z"/></g></g></g></g></svg>