<svg xmlns="http://www.w3.org/2000/svg" xmlns:xlink="http://www.w3.org/1999/xlink" viewBox="0 0 150 68.82"><defs><style>.cls-1{fill:#5ac8f7;}.cls-2{opacity:0.4;}.cls-3{fill:url(#未命名的渐变_3);}.cls-4{fill:url(#未命名的渐变_3-2);}.cls-5{fill:url(#未命名的渐变_4);}.cls-6{opacity:0.2;}</style><linearGradient id="未命名的渐变_3" y1="34.41" x2="34.84" y2="34.41" gradientUnits="userSpaceOnUse"><stop offset="0" stop-color="#5ac8f7" stop-opacity="0"/><stop offset="1" stop-color="#5ac8f7" stop-opacity="0.2"/></linearGradient><linearGradient id="未命名的渐变_3-2" x1="-3290.12" y1="34.41" x2="-3255.28" y2="34.41" gradientTransform="matrix(-1, 0, 0, 1, -3140.12, 0)" xlink:href="#未命名的渐变_3"/><linearGradient id="未命名的渐变_4" x1="74.22" y1="47.73" x2="74.22" y2="16.3" gradientUnits="userSpaceOnUse"><stop offset="0" stop-color="#5ac8f7" stop-opacity="0.2"/><stop offset="1" stop-color="#5ac8f7" stop-opacity="0"/></linearGradient></defs><title>速度仪表</title><g id="图层_2" data-name="图层 2"><g id="组件"><g id="速度仪表"><path class="cls-1" d="M35,45.78a52.79,52.79,0,0,0,4.88,13.48H36.69a55.48,55.48,0,0,1-4.6-13.48Z"/><path class="cls-1" d="M33.79,34.05c0,.12,0,.23,0,.35s0,.24,0,.36a52.72,52.72,0,0,0,1.05,10.31H32a56.92,56.92,0,0,1-1-10.31v-.71a56.72,56.72,0,0,1,1-10.3h2.89A52.54,52.54,0,0,0,33.79,34.05Z"/><path class="cls-1" d="M36.69,9.56h3.18A53.34,53.34,0,0,0,35,23H32.09A55.33,55.33,0,0,1,36.69,9.56Z"/><path class="cls-1" d="M44.87,1.75a53.26,53.26,0,0,0-4.62,7.1H37a55.5,55.5,0,0,1,4.31-7.1Z"/><path class="cls-1" d="M40.25,60a53.16,53.16,0,0,0,4.62,7.09H41.35A55.39,55.39,0,0,1,37,60Z"/><g class="cls-2"><path class="cls-1" d="M27.83,45.78a58.34,58.34,0,0,0,4.42,13.48H30.72a59.4,59.4,0,0,1-4.29-13.48Z"/><path class="cls-1" d="M26.73,34.05v.71a58.76,58.76,0,0,0,1,10.31H26.29a60.55,60.55,0,0,1-.95-10.31v-.71a60.34,60.34,0,0,1,.95-10.3H27.7A58.64,58.64,0,0,0,26.73,34.05Z"/><path class="cls-1" d="M30.72,9.56h1.54A57.58,57.58,0,0,0,27.83,23h-1.4A59.08,59.08,0,0,1,30.72,9.56Z"/><path class="cls-1" d="M36.7,1.75a57.07,57.07,0,0,0-4.1,7.1H31.05a58.39,58.39,0,0,1,4-7.1Z"/><path class="cls-1" d="M32.59,60a57,57,0,0,0,4.1,7.09H35a59,59,0,0,1-4-7.09Z"/></g><path class="cls-3" d="M0,67.06H34.84a59,59,0,0,1-4-7.09l-.33-.71a59.4,59.4,0,0,1-4.29-13.48c-.05-.24-.09-.48-.14-.71a60.55,60.55,0,0,1-.95-10.31v-.71a60.34,60.34,0,0,1,.95-10.3c.05-.24.09-.48.14-.71A59.08,59.08,0,0,1,30.54,9.56l.33-.71a61.22,61.22,0,0,1,4-7.1H0Z"/><path class="cls-1" d="M115,45.78a52.79,52.79,0,0,1-4.88,13.48h3.18a55.48,55.48,0,0,0,4.6-13.48Z"/><path class="cls-1" d="M116.21,34.05c0,.12,0,.23,0,.35s0,.24,0,.36a52.72,52.72,0,0,1-1,10.31h2.89a56.92,56.92,0,0,0,1-10.31v-.71a56.72,56.72,0,0,0-1-10.3h-2.89A52.54,52.54,0,0,1,116.21,34.05Z"/><path class="cls-1" d="M113.31,9.56h-3.18A53.34,53.34,0,0,1,115,23h2.89A55.33,55.33,0,0,0,113.31,9.56Z"/><path class="cls-1" d="M105.13,1.75a53.26,53.26,0,0,1,4.62,7.1H113a55.5,55.5,0,0,0-4.31-7.1Z"/><path class="cls-1" d="M109.75,60a53.16,53.16,0,0,1-4.62,7.09h3.52A55.39,55.39,0,0,0,113,60Z"/><g class="cls-2"><path class="cls-1" d="M122.17,45.78a58.34,58.34,0,0,1-4.42,13.48h1.53a59.4,59.4,0,0,0,4.29-13.48Z"/><path class="cls-1" d="M123.27,34.05v.71a58.76,58.76,0,0,1-1,10.31h1.41a60.55,60.55,0,0,0,1-10.31v-.71a60.34,60.34,0,0,0-1-10.3H122.3A58.64,58.64,0,0,1,123.27,34.05Z"/><path class="cls-1" d="M119.28,9.56h-1.54A57.58,57.58,0,0,1,122.17,23h1.4A59.08,59.08,0,0,0,119.28,9.56Z"/><path class="cls-1" d="M113.3,1.75a57.07,57.07,0,0,1,4.1,7.1H119a58.39,58.39,0,0,0-4-7.1Z"/><path class="cls-1" d="M117.41,60a57,57,0,0,1-4.1,7.09H115A59,59,0,0,0,119,60Z"/></g><path class="cls-4" d="M150,67.06H115.16a59,59,0,0,0,4-7.09l.33-.71a59.4,59.4,0,0,0,4.29-13.48c0-.24.09-.48.14-.71a60.55,60.55,0,0,0,1-10.31v-.71a60.34,60.34,0,0,0-1-10.3c0-.24-.09-.48-.14-.71a59.08,59.08,0,0,0-4.29-13.48l-.33-.71a61.22,61.22,0,0,0-4-7.1H150Z"/><rect class="cls-5" x="53.19" y="16.3" width="42.06" height="31.43"/><rect class="cls-1" x="53.19" y="45.78" width="42.06" height="1.95"/><polygon class="cls-1" points="70.71 68.82 74.22 65.31 77.73 68.82 70.71 68.82"/><polygon class="cls-1" points="70.71 0 74.22 3.51 77.73 0 70.71 0"/><g class="cls-6"><path d="M56.76,39.18c-.17.37-.39.79-.65,1.26s-.54,1-.83,1.44-.6,1-.91,1.42-.58.88-.84,1.25l-2.35-1.12c.28-.36.57-.76.87-1.21s.61-.9.9-1.36.55-.92.79-1.36.43-.84.58-1.18Zm4-1.84v4.12a3.87,3.87,0,0,1-.14,1.17,1.67,1.67,0,0,1-.44.73,2.38,2.38,0,0,1-.81.45c-.33.11-.73.23-1.21.35L57,44.44l-.83-2.59.89-.22a2.29,2.29,0,0,0,.73-.27.61.61,0,0,0,.2-.55v-3.1l-5.6.73L53,30.7l2-.28,2.1-.34c.71-.12,1.43-.25,2.14-.39l2-.42c.66-.14,1.28-.27,1.87-.41l1.56-.39.55,2.63-2.07.47-2.42.51-2.59.48L55.56,33l-.18,2.54L58,35.27V33l2.78-.3v2.15l4.93-.6v2.47Zm2.72-.23c.17.2.39.46.65.79L65,39c.29.4.58.8.86,1.21s.54.8.77,1.18l-2.36,1.82c-.19-.36-.41-.74-.65-1.16s-.52-.83-.79-1.23L62,39.64a7.89,7.89,0,0,0-.72-.9Z"/><path d="M82.29,32.27v2.21l-14.64,2V34.27l3.27-.43.24-1-2.39.32V31.27l2.85-.38.21-.87-3.4.45v-2.2l13.08-1.72v2.2l-6.85.9-.21.87,6-.79-.15,2.85ZM69.1,37l11.74-1.55V41L69.1,42.59Zm2.58,3.09,6.45-.85V37.92l-6.45.84Zm2.09-6.64,3.87-.51L77.7,32,74,32.44Z"/><path d="M89,34.94c-.18.37-.39.79-.65,1.26s-.54.94-.84,1.43-.6,1-.9,1.43-.59.88-.85,1.25L83.4,39.19c.27-.36.56-.77.87-1.21s.6-.9.89-1.36.55-.92.79-1.36.44-.84.59-1.19Zm4-1.84v4.11a3.93,3.93,0,0,1-.14,1.18,1.66,1.66,0,0,1-.45.72,2.4,2.4,0,0,1-.81.46c-.33.11-.73.23-1.21.35l-1.17.28-.83-2.59.89-.22a2.89,2.89,0,0,0,.73-.27.61.61,0,0,0,.2-.55V33.46l-5.6.74.59-7.74,2-.28,2.11-.34,2.14-.39L93.49,25c.66-.14,1.29-.27,1.87-.41l1.48-.36.56,2.62-2.07.48c-.76.17-1.57.34-2.41.5l-2.6.49-2.58.46-.17,2.54L90.15,31V28.78l2.78-.3v2.15L97.86,30v2.47Zm2.72-.23c.17.2.39.46.65.79s.55.68.84,1.07.58.8.86,1.21.54.8.77,1.17l-2.36,1.83c-.19-.36-.4-.74-.65-1.16S95.3,37,95,36.55L94.2,35.4c-.27-.36-.51-.66-.73-.9Z"/></g></g></g></g></svg>